<?xml version="1.0" encoding="UTF-8"?>
<svg id="Layer_2" data-name="Layer 2" xmlns="http://www.w3.org/2000/svg" xmlns:xlink="http://www.w3.org/1999/xlink" viewBox="0 0 153.05 65.5">
  <defs>
    <style>
      .cls-1 {
        fill: url(#New_Gradient_Swatch_2-2);
      }

      .cls-2 {
        fill: url(#linear-gradient-3);
      }

      .cls-3 {
        fill: url(#linear-gradient-2);
      }

      .cls-4 {
        fill: url(#linear-gradient);
      }

      .cls-5 {
        fill: #f16422;
      }

      .cls-6 {
        fill: #0077be;
      }

      .cls-7 {
        fill: #079bd7;
      }

      .cls-8 {
        fill: #005684;
      }

      .cls-9 {
        fill: url(#New_Gradient_Swatch_2);
      }
    </style>
    <linearGradient id="New_Gradient_Swatch_2" data-name="New Gradient Swatch 2" x1="30.76" y1="34.67" x2="51.34" y2="34.67" gradientUnits="userSpaceOnUse">
      <stop offset="0" stop-color="#0077be" stop-opacity=".6"/>
      <stop offset=".06" stop-color="#1384c6" stop-opacity=".67"/>
      <stop offset=".15" stop-color="#2e96d1" stop-opacity=".77"/>
      <stop offset=".26" stop-color="#44a5da" stop-opacity=".86"/>
      <stop offset=".38" stop-color="#55b1e2" stop-opacity=".92"/>
      <stop offset=".52" stop-color="#61b9e7" stop-opacity=".97"/>
      <stop offset=".69" stop-color="#68beea" stop-opacity=".99"/>
      <stop offset="1" stop-color="#6bc0eb"/>
    </linearGradient>
    <linearGradient id="New_Gradient_Swatch_2-2" data-name="New Gradient Swatch 2" x1="30.76" y1="30.79" x2="51.34" y2="30.79" xlink:href="#New_Gradient_Swatch_2"/>
    <linearGradient id="linear-gradient" x1="0" y1="11.91" x2="51.34" y2="11.91" gradientUnits="userSpaceOnUse">
      <stop offset="0" stop-color="#007aad" stop-opacity="0"/>
      <stop offset=".35" stop-color="#0079ad" stop-opacity=".25"/>
      <stop offset=".43" stop-color="#0079ad" stop-opacity=".3"/>
      <stop offset=".98" stop-color="#66bce8" stop-opacity=".97"/>
      <stop offset="1" stop-color="#6bbfeb"/>
    </linearGradient>
    <linearGradient id="linear-gradient-2" x1="0" y1="29.31" x2="42.32" y2="29.31" gradientUnits="userSpaceOnUse">
      <stop offset="0" stop-color="#0079ac" stop-opacity="0"/>
      <stop offset=".35" stop-color="#0079ac" stop-opacity=".25"/>
      <stop offset=".43" stop-color="#0079ad" stop-opacity=".3"/>
      <stop offset=".98" stop-color="#66bce8" stop-opacity=".97"/>
      <stop offset="1" stop-color="#6bbfeb"/>
    </linearGradient>
    <linearGradient id="linear-gradient-3" y1="20.07" x2="48.63" y2="20.07" xlink:href="#linear-gradient-2"/>
  </defs>
  <g>
    <polygon class="cls-8" points="101.92 22.03 115.1 22.03 120.93 18.18 120.93 18.13 97.56 18.13 97.56 33.62 101.92 30.74 101.92 22.03"/>
    <polygon class="cls-8" points="101.92 37.25 117.73 37.25 117.73 33.54 104.44 33.54 97.56 38.09 97.56 53.88 120.93 53.88 120.93 49.97 101.92 49.97 101.92 37.25"/>
    <path class="cls-8" d="M83.62,35.02c-.9-.35-1.88-.66-2.95-.92h-.04s-4.67-1.12-4.67-1.12c-4.61-1.12-6.59-2.79-6.59-5.88,0-2.84,2.23-5.68,7.56-5.68,3.62,0,6.42,1.44,7.57,4.23l3.65-2.41c-2.16-3.81-6.45-5.67-11.22-5.67-7.1,0-11.92,4.41-11.92,9.58s3.19,8.06,9.53,9.68l1.41.34,3.15.77s.04.01.06.01c4.98,1.22,7.09,2.84,7.09,6.37,0,3.85-3.85,6.19-8.62,6.19-4.25,0-7.63-1.86-8.98-5.62l-3.73,2.46c2.07,4.35,6.55,7.01,12.71,7.01,7.81,0,12.98-4.61,12.98-10.39,0-4.24-2.38-7.17-6.99-8.97Z"/>
    <path class="cls-8" d="M146.06,35.02c-.9-.35-1.88-.66-2.95-.92h-.04s-4.67-1.12-4.67-1.12c-4.61-1.12-6.59-2.79-6.59-5.88,0-2.84,2.23-5.68,7.56-5.68,3.62,0,6.42,1.44,7.57,4.23l3.65-2.41c-2.16-3.81-6.45-5.67-11.22-5.67-7.1,0-11.92,4.41-11.92,9.58s3.19,8.06,9.53,9.68l1.41.34,3.15.77s.04.01.06.01c4.98,1.22,7.09,2.84,7.09,6.37,0,3.85-3.85,6.19-8.62,6.19-4.25,0-7.63-1.86-8.98-5.62l-3.73,2.46c2.07,4.35,6.55,7.01,12.71,7.01,7.81,0,12.98-4.61,12.98-10.39,0-4.24-2.38-7.17-6.99-8.97Z"/>
  </g>
  <g>
    <path class="cls-7" d="M68.45,62.47v.08c.55.04.81.41.81,1v1.58h-1.1v-1.34c0-.59-.25-.83-.89-.83h-1.27v2.17h-1.1v-5.59h2.5c1.27,0,1.92.65,1.92,1.61,0,.63-.29,1.18-.86,1.32ZM66,60.44v1.71h1.23c.59,0,.94-.33.94-.87s-.33-.83-.94-.83h-1.23Z"/>
    <path class="cls-7" d="M73.24,65.12h-1.1v-5.59h1.1v5.59Z"/>
    <path class="cls-7" d="M78.42,62.85l-.75-.2c-1.05-.27-1.58-.79-1.58-1.6,0-.95.87-1.6,1.99-1.6s2.05.64,2.09,1.7h-1.16c-.04-.54-.41-.81-.93-.81-.59,0-.86.33-.86.67s.24.53.78.68l.88.25c1.01.28,1.49.79,1.49,1.57,0,.96-.91,1.68-2.18,1.68-1.34,0-2.21-.74-2.27-1.93h1.13c.05.66.51,1.02,1.13,1.02s1.05-.27,1.05-.71c0-.36-.24-.57-.83-.73Z"/>
    <path class="cls-7" d="M84.17,61.91l1.97-2.38h1.36l-2.26,2.66,2.55,2.93h-1.42l-1.85-2.15-.35.37v1.78h-1.1v-5.59h1.1v2.38Z"/>
    <path class="cls-7" d="M95.9,62.85l-.75-.2c-1.05-.27-1.58-.79-1.58-1.6,0-.95.87-1.6,1.99-1.6s2.05.64,2.09,1.7h-1.16c-.04-.54-.41-.81-.93-.81-.59,0-.86.33-.86.67s.24.53.78.68l.88.25c1.01.28,1.49.79,1.49,1.57,0,.96-.91,1.68-2.18,1.68-1.34,0-2.21-.74-2.27-1.93h1.13c.05.66.51,1.02,1.13,1.02s1.05-.27,1.05-.71c0-.36-.24-.57-.83-.73Z"/>
    <path class="cls-7" d="M103.01,59.45c1.69,0,2.77,1.17,2.77,2.88s-1.08,2.87-2.77,2.87-2.77-1.17-2.77-2.87,1.09-2.88,2.77-2.88ZM103.01,64.29c1.03,0,1.64-.79,1.64-1.96s-.6-1.97-1.64-1.97-1.64.78-1.64,1.97.63,1.96,1.64,1.96Z"/>
    <path class="cls-7" d="M108.48,59.53h1.07v4.66h2.47v.93h-3.54v-5.59Z"/>
    <path class="cls-7" d="M114.32,59.53h1.07v3.25c0,1.09.48,1.49,1.25,1.49s1.25-.4,1.25-1.49v-3.25h1.07v3.25c0,1.59-.85,2.42-2.32,2.42s-2.32-.82-2.32-2.42v-3.25Z"/>
    <path class="cls-7" d="M121.24,59.53h4.38v.94h-1.66v4.65h-1.07v-4.65h-1.66v-.94Z"/>
    <path class="cls-7" d="M129.13,65.12h-1.1v-5.59h1.1v5.59Z"/>
    <path class="cls-7" d="M134.6,59.45c1.69,0,2.77,1.17,2.77,2.88s-1.08,2.87-2.77,2.87-2.77-1.17-2.77-2.87,1.09-2.88,2.77-2.88ZM134.6,64.29c1.03,0,1.64-.79,1.64-1.96s-.6-1.97-1.64-1.97-1.64.78-1.64,1.97.63,1.96,1.64,1.96Z"/>
    <path class="cls-7" d="M141.26,60.94h-.08v4.18h-1.1v-5.59h1.28l2.33,3.89.04.3h.07v-4.19h1.1v5.59h-1.28l-2.34-3.89-.03-.29Z"/>
    <path class="cls-7" d="M150.08,62.85l-.75-.2c-1.05-.27-1.58-.79-1.58-1.6,0-.95.87-1.6,1.99-1.6s2.05.64,2.09,1.7h-1.16c-.04-.54-.41-.81-.93-.81-.59,0-.86.33-.86.67s.24.53.78.68l.88.25c1.01.28,1.49.79,1.49,1.57,0,.96-.91,1.68-2.18,1.68-1.34,0-2.21-.74-2.27-1.93h1.13c.05.66.51,1.02,1.13,1.02s1.05-.27,1.05-.71c0-.36-.24-.57-.83-.73Z"/>
  </g>
  <g>
    <polygon class="cls-9" points="45.22 37.53 48.76 35.3 45.06 31.81 41.52 33.98 45.22 37.53"/>
    <polygon class="cls-1" points="51.34 33.61 51.34 27.98 47.68 30.21 51.34 33.61"/>
    <polygon class="cls-6" points="51.34 43.49 51.34 37.8 40.64 44.7 40.64 50.61 51.34 43.49"/>
    <g>
      <polygon class="cls-4" points="30.76 0 30.76 0 30.76 0 30.76 0 30.76 0 0 16.24 0 21.64 30.76 5.3 30.76 5.32 51.34 23.81 51.34 18.13 30.76 0"/>
      <polygon class="cls-3" points="0 34.88 0 40.28 30.76 23.66 38.77 31.35 42.32 29.23 30.76 18.34 0 34.88"/>
      <polygon class="cls-2" points="0 25.56 0 30.96 30.76 14.49 44.94 27.67 48.63 25.46 30.76 9.17 0 25.56"/>
    </g>
    <polygon class="cls-6" points="18.28 59.15 18.28 65.5 32.39 56.1 32.52 49.95 18.28 59.15"/>
    <polygon class="cls-6" points="18.28 54.55 32.61 45.49 32.67 42.64 40.64 37.8 40.64 40.42 51.34 33.67 51.34 27.98 18.28 48.2 18.28 54.55"/>
    <polygon class="cls-6" points="18.28 37.24 18.28 43.59 51.34 23.85 51.34 18.16 18.28 37.24"/>
    <polygon class="cls-5" points="40.64 37.8 47.94 44.36 47.68 57.45 40.64 51.23 40.64 37.8"/>
  </g>
</svg>
